inDegrees=no
num_controls=7
num_derivatives=13
num_iterations=77
num_multipliers=7
num_parameters=0
num_slacks=7
num_states=26
objective=0.454525
objective_accelerations=0.044561
objective_balance=0.000800
objective_effort=0.036436
objective_height=0.366662
objective_ligament=0.006066
solver_duration=873.080865
status=Solve_Succeeded
success=true
DataType=double
version=3
OpenSimVersion=4.5
endheader
time	/jointset/ground_pelvis/pelvis_tilt/value	/jointset/ground_pelvis/pelvis_tx/value	/jointset/ground_pelvis/pelvis_ty/value	/jointset/hip_r/hip_flexion_r/value	/jointset/hip_r/hip_adduction_r/value	/jointset/hip_r/hip_rotation_r/value	/jointset/back/lumbar_extension/value	/jointset/patellofemoral_r/patellar_flexion_r/value	/jointset/knee_r/knee_flexion_r/value	/jointset/knee_r/knee_adduction_r/value	/jointset/knee_r/knee_rotation_r/value	/jointset/ankle_r/ankle_angle_r/value	/jointset/subtalar_r/subtalar_angle_r/value	/jointset/ground_pelvis/pelvis_tilt/speed	/jointset/ground_pelvis/pelvis_tx/speed	/jointset/ground_pelvis/pelvis_ty/speed	/jointset/hip_r/hip_flexion_r/speed	/jointset/hip_r/hip_adduction_r/speed	/jointset/hip_r/hip_rotation_r/speed	/jointset/back/lumbar_extension/speed	/jointset/patellofemoral_r/patellar_flexion_r/speed	/jointset/knee_r/knee_flexion_r/speed	/jointset/knee_r/knee_adduction_r/speed	/jointset/knee_r/knee_rotation_r/speed	/jointset/ankle_r/ankle_angle_r/speed	/jointset/subtalar_r/subtalar_angle_r/speed	/forceset/tau_hip_flexion_r	/forceset/tau_hip_adduction_r	/forceset/tau_hip_rotation_r	/forceset/tau_knee_flexion_r	/forceset/tau_ankle_angle_r	/forceset/tau_subtalar_angle_r	/forceset/tau_lumbar_extension	lambda_cid13_p0	lambda_cid14_p0	lambda_cid14_p1	lambda_cid14_p2	lambda_cid14_p3	lambda_cid14_p4	lambda_cid14_p5	/jointset/ground_pelvis/pelvis_tilt/accel	/jointset/ground_pelvis/pelvis_tx/accel	/jointset/ground_pelvis/pelvis_ty/accel	/jointset/hip_r/hip_flexion_r/accel	/jointset/hip_r/hip_adduction_r/accel	/jointset/hip_r/hip_rotation_r/accel	/jointset/back/lumbar_extension/accel	/jointset/patellofemoral_r/patellar_flexion_r/accel	/jointset/knee_r/knee_flexion_r/accel	/jointset/knee_r/knee_adduction_r/accel	/jointset/knee_r/knee_rotation_r/accel	/jointset/ankle_r/ankle_angle_r/accel	/jointset/subtalar_r/subtalar_angle_r/accel	gamma_cid13_p0	gamma_cid14_p0	gamma_cid14_p1	gamma_cid14_p2	gamma_cid14_p3	gamma_cid14_p4	gamma_cid14_p5
1	-0.21112970181925	-0.001680763446788017	0.657416951481677	1.345854546579742	-0.2544881112561103	0.09793284867164133	-0.7853940907034227	1.47244344540938	1.472443445409348	0.05042564794734578	0.1745050072099434	0.4362145229825052	0.1406563407803492	0.07694059698678803	0.006321242707105045	0.01392184200484795	-0.1052519916938952	-0.001502589707167211	-0.009096702100353345	4.312220602251772e-05	-0.01148827013318915	-0.01148827013318876	-0.0044078428762784	-0.0001516703978053963	0.01732340953268879	0.005290935809759435	-0.3185788530918112	0.02530253865366874	0.05098332689297926	-0.4572045133579175	-0.03154142884296069	-0.01778359715259267	0.3479829647785022	-0.04052376214754467	-62.47754459329863	-21.78976395537364	7.467586048670964	9.249639377091729	-759.8247403406779	65.8893420618441	1.357445324556482	0.138573042779727	1.657009904512578	-5.133903426033354	-0.04961911209268381	-1.477952455155357	-0.06434988452613891	-4.719764949800075	-4.719764949799894	0.05038018530122972	-0.07542618593247202	-1.163806962052941	-0.5865482204011457	1.639336819167866e-09	-2.652971255409523e-09	-3.347596306601993e-09	4.643273880982466e-09	5.889319982054133e-09	-9.425648801383817e-09	-2.027964201261763e-09
1.01	-0.2102943077816054	-0.001610553489220412	0.6576389406674705	1.34454704870041	-0.2545055989653876	0.09776772737419774	-0.7853938235367459	1.472092168379043	1.472092168379043	0.05038394432969063	0.1744997496396949	0.4363293117896955	0.1406798384327611	0.09001763128557451	0.007730772901783124	0.03048144024843367	-0.1561691852464715	-0.002004832113051275	-0.02394236846642579	0.0002376196623607997	-0.05883034812083587	-0.05883034812083563	-0.003911617827253101	-0.0008721235670477704	0.005606719960220077	-0.0006223625832265413	-0.3191330747202722	0.02542167893542437	0.05099592626626202	-0.457808734022833	-0.03158543946687981	-0.01780335316931186	0.3489371654121049	-0.04053772395319107	-62.55988693873088	-21.8245815501861	7.486637783267011	9.13999319665681	-760.9137379800122	65.92064589550796	1.264745934789779	0.1436484853484134	1.656248570849673	-5.058867536443755	-0.05200923146053261	-1.490097206995635	0.09544584060385482	-4.75091111171642	-4.750911111716561	0.05243490019459012	-0.06619717635509723	-1.179745944056745	-0.5983627790928892	3.157212896720146e-10	-5.451638349278564e-09	1.228952718218113e-08	-5.144689203847072e-09	9.281889131220855e-09	-1.483345925152356e-08	1.07441962551148e-08
1.02	-0.2093317607105229	-0.001525947134198723	0.6580266885930137	1.342732730842237	-0.2545284055840486	0.09745370471716037	-0.7853847921395248	1.471265574191136	1.471265574191168	0.0503478412096241	0.1744881190789671	0.4363261045033173	0.1406432746751739	0.1023712036743629	0.009200522197922056	0.04707358995474885	-0.2066159874620076	-0.002566371583905949	-0.03887697401910904	0.00179596831423654	-0.1065517016472608	-0.1065517016472618	-0.003287743358576681	-0.001426268493693293	-0.006275809180794228	-0.006721346190035163	-0.3196872963487333	0.02554081921717999	0.05100852563954493	-0.4584129546877485	-0.03162945009079888	-0.01782310918603107	0.3498913660457074	-0.04055705660569823	-62.6499544684469	-21.85823886700594	7.502634423509648	9.038834047732861	-762.1431822412035	65.95120378186314	1.212752942556851	0.1506168630718976	1.663520197058467	-5.039825158625316	-0.06147852508680569	-1.495740292477514	0.2084203545813475	-4.795620057555721	-4.795620057555753	0.07591006923092594	-0.04216453741350727	-1.196974875764978	-0.6236852631656746	-1.854041704007934e-09	-6.839038698721284e-09	2.034772356797087e-08	-1.416646784228988e-08	9.284300685094226e-09	-1.825327312824102e-08	6.643991727957651e-09
1.03	-0.2082477379501259	-0.001426249930505932	0.6585805365999091	1.340414804147432	-0.2545573957107088	0.09698997655457166	-0.7853547884967619	1.469960307393786	1.469960307393797	0.05031896781178864	0.1744724442206161	0.4362035752422403	0.1405444495389825	0.114466835043438	0.01075816094024231	0.06370296454249225	-0.2570389256035985	-0.003267576555678601	-0.05387798013542455	0.004291258658430133	-0.1545219847907467	-0.1545219847907446	-0.00243460970402802	-0.001616679877822909	-0.01822455807080886	-0.01310664976423188	-0.3202384073548638	0.0255795130602237	0.0509716320734316	-0.4580857785265346	-0.03213277720632032	-0.01773778111244537	0.3507351121901098	-0.04056616069275345	-62.83319359491413	-21.83747173482361	7.481284101728154	8.970360266320975	-762.7345796641121	65.94795599937017	1.212991273633633	0.1612255899814556	1.663684706190572	-5.053964737216322	-0.07983183278392539	-1.503685935053724	0.2830581373459244	-4.800780668264685	-4.800780668264235	0.09787019670063532	0.006320490556061653	-1.193004175887009	-0.6553963509781601	-4.032438855485683e-09	-8.212038367098421e-09	2.832858396291369e-08	-2.318042827209608e-08	9.252118794117645e-09	-2.165280132563783e-08	2.371620211172511e-09
1.04	-0.207041754268128	-0.001310398697356069	0.6593008860759937	1.337590560752152	-0.254594475956999	0.0963759572980508	-0.7852972369979553	1.468174728119898	1.468174728119888	0.0503001967871254	0.1744576252343175	0.4359617226362098	0.1403798826777629	0.1267633879945425	0.0124313280893367	0.08037388379256799	-0.3078793275568049	-0.004184395509908294	-0.06893519280552864	0.00730553952292624	-0.20261419695502	-0.2026141969550136	-0.001267268724127429	-0.001255094083202488	-0.03014047817151591	-0.01986969119568823	-0.3207895183609942	0.02561820690326742	0.05093473850731842	-0.4577586023653054	-0.03263610432184174	-0.01765245303885966	0.3515788583344986	-0.04058106798384178	-63.02417260507277	-21.81513589986988	7.456344238027544	8.909154455535262	-763.4697521099239	65.94518706238151	1.252937258962728	0.1737225444267263	1.671829129524931	-5.123317920948555	-0.1046013215782139	-1.506981603235227	0.312218458641851	-4.820005861713276	-4.820005861712814	0.1387515343013085	0.06823489833650115	-1.190409117903485	-0.6992328346176008	-2.175632415475523e-09	-7.094904430371812e-09	1.47939094996156e-08	-1.582067770063804e-08	9.916898701930626e-09	-2.194909114193318e-08	-7.083738289810884e-09
1.05	-0.2057123510970232	-0.001177240521326465	0.6601879936638879	1.334256645668754	-0.2546412701968878	0.09561103327261487	-0.7852062747614297	1.465907799839111	1.465907799839105	0.05029374141794229	0.1744480117331261	0.4356009567918732	0.1401468610706311	0.1390963286572184	0.01421953054860743	0.09703884473418865	-0.3588924493735264	-0.005157260938854931	-0.08406230927469018	0.01104051790559144	-0.2507735567331857	-0.2507735567331832	-6.242502121047485e-05	-0.0006925783489875137	-0.04199866154295484	-0.0266913641437818	-0.3210452959345078	0.02568178534971662	0.05087645405589904	-0.4571181235606558	-0.03300287692782805	-0.01755546137153678	0.3522312740490572	-0.04061175929731068	-63.13880230763895	-21.76760208797194	7.419660346325939	8.786291483104183	-763.7732067555633	65.9300024396895	1.220335061171377	0.1842547391073419	1.662506786974323	-5.088623671418258	-0.09105022360019643	-1.517483725957985	0.4271790466289096	-4.814215646985172	-4.814215646986062	0.1055598739897695	0.04651201708430426	-1.181419284957953	-0.6671454045489341	-1.927258632313875e-10	-5.899953818485725e-09	5.868745719976105e-10	-7.949248660390588e-09	1.060345866595578e-08	-2.214840475881912e-08	-1.670106513405044e-08
1.06	-0.2042602460010415	-0.001025623192218144	0.661241486303297	1.330412936495311	-0.2546972773050757	0.09469445667104689	-0.7850733544373673	1.46315921503832	1.463159215038315	0.05029817630292891	0.1744432738105008	0.4351220298461834	0.1398469205580896	0.1513037729699482	0.0161231587050804	0.1136508940955573	-0.4098381455656204	-0.006026969169694362	-0.09926570803193509	0.01569715703025804	-0.2989455009560302	-0.2989455009560339	0.0009107821098335352	-0.0002799783699609765	-0.0537726984421479	-0.03325347227762335	-0.3213010735080217	0.02574536379616576	0.05081816960447978	-0.4564776447560063	-0.03336964953381433	-0.01745846970421401	0.3528836897636157	-0.04064822120981386	-63.26124958598014	-21.71841737577322	7.379264316271176	8.668554410019754	-764.2230501465327	65.91567937496275	1.227837988973489	0.1968076838671746	1.661246813474533	-5.109832796023046	-0.08396988195681987	-1.522238060851898	0.4965506070421321	-4.822522750649053	-4.82252275064902	0.09242421992789909	0.03825174729873386	-1.173579823454291	-0.6473198717671963	-1.950826361271053e-09	-5.027194326696023e-09	-7.952359830503714e-09	-2.071824358722085e-08	9.177717399996075e-09	-2.125816701120046e-08	-3.234172668044452e-08
1.07	-0.2026884508467293	-0.0008544437668876106	0.6624604975641644	1.326062432325459	-0.2547612921886085	0.09362600371108706	-0.7848872302872143	1.459929137484012	1.459929137484003	0.05031138760104781	0.1744415479950983	0.4345255259151117	0.1394828717706635	0.1628514264161943	0.01812674328434315	0.1301078894824473	-0.4600103557968259	-0.006742215908395662	-0.1143787494355357	0.02189259444139625	-0.3470421727935825	-0.3470421727935734	0.001718695913724428	-0.000126053114102683	-0.06554058646218677	-0.03949363792118561	-0.3211645220011451	0.02575620877826403	0.05074820253011827	-0.4555569251865452	-0.03355454062919728	-0.01735350014823033	0.3533286442133781	-0.04070382343026933	-63.29076824097488	-21.64321827941852	7.327549134087889	8.512009145101562	-764.1836618928822	65.88961294336153	1.087654152127235	0.204237889626241	1.631401563393422	-4.933065867010805	-0.06023742834279943	-1.498921645456318	0.7357785243152729	-4.799063024257975	-4.799063024256592	0.07306018502591477	-0.005176423152496654	-1.180267558459696	-0.6029746604812254	-3.907916596027968e-09	-4.171572660443365e-09	-1.619011548166901e-08	-3.45851334059171e-08	7.639619685632909e-09	-2.030997440376771e-08	-4.830277837057026e-08
1.08	-0.2010072941320192	-0.0006628076868303696	0.66384277391132	1.321217775907227	-0.2548314466112316	0.09240780344402276	-0.7846282041197171	1.456218928486539	1.456218928486525	0.05033229508208687	0.1744395335646779	0.4338109682504033	0.1390582993768357	0.1731760850495223	0.02021448965042198	0.1463039113532255	-0.5086685952416922	-0.007254876987738657	-0.1292151694528202	0.03027756049915895	-0.3949717895891224	-0.3949717895891214	0.002450018693864528	-0.0003377013735193495	-0.0773834451694672	-0.04535819355796727	-0.3210279704942686	0.02576705376036223	0.05067823545575679	-0.4546362056170828	-0.03373943172458024	-0.0172485305922468	0.3537735986631523	-0.04076535542292554	-63.32842456862075	-21.566767730305	7.27257758976061	8.361217019482835	-764.2917397786722	65.86447310380908	0.9832390263898565	0.2136400412303892	1.609052110252185	-4.807038638755252	-0.0434527500851589	-1.466913783588653	0.9344563363670317	-4.789111742246695	-4.789111742250829	0.07710601517773839	-0.0348629557562584	-1.188573960902712	-0.5721978704110766	-5.172611351787491e-09	-6.189296099402121e-09	-4.632981068505947e-09	-4.040540853961887e-08	9.256105275582683e-09	-2.490992241369231e-08	-4.340536655847457e-08
